<svg width="347" height="347" xmlns="http://www.w3.org/2000/svg" xml:space="preserve" version="1.1" fill="#000000">

 <g>
  <title>Layer 1</title>
  <rect id="svg_11" height="335.5" width="336.5" y="5.5" x="7" stroke="#000000" fill="#ffffff"/>
  <g id="svg_2">
   <path id="svg_3" d="m341.33425,-0.00001l-83.83613,0l-83.83682,0l-83.83682,0l-83.83613,0c-3.59314,0 -5.98834,2.3952 -5.98834,5.98834l0,47.90676l0,47.90676l0,47.90676l0,47.90676l0,47.90676l0,47.90676l0,47.90676c0,3.59314 2.3952,5.98834 5.98834,5.98834l83.83682,0l83.83682,0l83.83682,0l83.83682,0c3.59314,0 5.98834,-2.3952 5.98834,-5.98834l0,-47.90814l0,-47.90676l0,-47.90676l0,-47.90676l0,-47.90676l0,-47.90538l0,-47.90676c-0.00138,-3.59314 -2.39658,-5.98834 -5.98972,-5.98834zm-83.83613,287.43915l-35.93007,0l0,-35.93007l35.93007,0l35.93007,0l0,35.93007l-35.93007,0zm-83.83682,0l-35.93007,0l0,-35.93007l35.93007,0l35.93007,0l0,35.93007l-35.93007,0zm-83.83682,0l-35.92938,0l0,-35.93007l35.93007,0l35.93007,0l0,35.93007l-35.93076,0zm-77.84779,0l0,-35.93007l29.94172,0l0,35.93007l-29.94172,0zm77.84779,-227.55571l35.93007,0l0,35.93007l-35.93007,0l-35.92938,0l0,-35.93007l35.92938,0zm83.83682,0l35.93007,0l0,35.93007l-35.93007,0l-35.93007,0l0,-35.93007l35.93007,0zm83.83682,0l35.93007,0l0,35.93007l-35.93007,0l-35.93007,0l0,-35.93007l35.93007,0zm77.84779,0l0,35.93007l-29.94172,0l0,-35.93007l29.94172,0zm0,83.83613l-35.93007,0l-35.93007,0l0,-35.93007l35.93007,0l35.93007,0l0,35.93007zm0,47.90676l-29.94172,0l0,-35.93007l29.94172,0l0,35.93007zm0,47.90676l-35.93007,0l-35.93007,0l0,-35.93007l35.93007,0l35.93007,0l0,35.93007zm-119.7662,0l-35.93007,0l0,-35.93007l35.93007,0l35.93007,0l0,35.93007l-35.93007,0zm-83.83682,0l-35.93007,0l0,-35.93007l35.93007,0l35.93007,0l0,35.93007l-35.93007,0zm-83.83613,0l-35.93007,0l0,-35.93007l35.93007,0l35.93007,0l0,35.93007l-35.93007,0zm-35.93007,-83.83682l29.94172,0l0,35.93007l-29.94172,0l0,-35.93007zm0,-47.90676l35.93007,0l35.93007,0l0,35.93007l-35.93007,0l-35.93007,0l0,-35.93007zm119.7662,0l35.93007,0l0,35.93007l-35.93007,0l-35.93007,0l0,-35.93007l35.93007,0zm83.83682,0l35.93007,0l0,35.93007l-35.93007,0l-35.93007,0l0,-35.93007l35.93007,0zm77.84779,83.83682l-35.93007,0l-35.93007,0l0,-35.93007l35.93007,0l35.93007,0l0,35.93007zm-119.7662,0l-35.93007,0l0,-35.93007l35.93007,0l35.93007,0l0,35.93007l-35.93007,0zm-83.83682,0l-35.92938,0l0,-35.93007l35.93007,0l35.93007,0l0,35.93007l-35.93076,0zm-47.90607,-95.81351l-29.94172,0l0,-35.92938l29.94172,0l0,35.92938zm263.48578,155.69696l29.94172,0l0,35.93007l-29.94172,0l0,-35.93007zm29.94172,-203.60302l-35.93007,0l-35.93007,0l0,-35.93007l71.86013,0l0,35.93007zm-83.83613,0l-35.93007,0l-35.93007,0l0,-35.93007l71.86013,0l0,35.93007zm-83.83682,0l-35.93007,0l-35.93007,0l0,-35.93007l71.86013,0l0,35.93007zm-155.69627,-35.93007l71.86013,0l0,35.93007l-35.93007,0l-35.93007,0l0,-35.93007zm0,287.43915l35.93007,0l35.93007,0l0,35.93007l-71.86013,0l0,-35.93007zm83.83613,0l35.93007,0l35.93007,0l0,35.93007l-71.86013,0l0,-35.93007zm83.83682,0l35.93007,0l35.93007,0l0,35.93007l-71.86013,0l0,-35.93007zm155.69627,35.93007l-71.85944,0l0,-35.93007l35.93007,0l35.93007,0l0,35.93007l-0.00069,0z"/>
  </g>
  <rect id="svg_8" height="180" width="83" y="83.16197" x="132.66199" stroke="#000000" fill="#ffffff"/>
  <g stroke-width="3">
   <path stroke="#000000" fill="#ffffff" d="m223.537,82.22447l-8.3125,-8.3125l-83.12501,0l-8.3125,8.3125l0,33.25l-16.625,0l0,16.625l16.625,0l0,33.25l-16.625,0l0,16.625l16.625,0l0,33.25l-16.625,0l0,16.625l16.625,0l0,33.25l8.3125,8.3125l83.12501,0l8.3125,-8.3125l0,-33.25l16.625,0l0,-16.625l-16.625,0l0,-33.25l16.625,0l0,-16.625l-16.625,0l0,-33.25l16.625,0l0,-16.625l-16.625,0l0,-33.25zm-83.12501,8.3125l66.5,0l0,166.25001l-66.5,0l0,-166.25001zm33.25,49.875c9.18143,0 16.625,-7.44323 16.625,-16.625c0,-9.18177 -7.44357,-16.625 -16.625,-16.625c-9.18143,0 -16.625,7.44323 -16.625,16.625c0,9.18177 7.44357,16.625 16.625,16.625zm16.625,33.25c0,9.18143 -7.44357,16.625 -16.625,16.625c-9.18143,0 -16.625,-7.44357 -16.625,-16.625c0,-9.18143 7.44357,-16.625 16.625,-16.625c9.18143,0 16.625,7.44357 16.625,16.625zm-16.625,66.5c9.18143,0 16.625,-7.44357 16.625,-16.625c0,-9.18143 -7.44357,-16.625 -16.625,-16.625c-9.18143,0 -16.625,7.44357 -16.625,16.625c0,9.18143 7.44357,16.625 16.625,16.625z" clip-rule="evenodd" fill-rule="evenodd"/>
  </g>
  <ellipse ry="15" rx="15" id="svg_9" cy="123.66197" cx="173.66199" stroke="#000000" fill="#ff0000"/>
 </g>
</svg>